<?xml version="1.0" encoding="utf-8" ?>
<svg baseProfile="tiny" height="100%" version="1.2" viewBox="0,0,1024,1024" width="100%" xmlns="http://www.w3.org/2000/svg" xmlns:ev="http://www.w3.org/2001/xml-events" xmlns:xlink="http://www.w3.org/1999/xlink"><defs /><path d="M 531,954 L 534,954 Z" fill="black" /><path d="M 492,954 L 501,954 Z" fill="black" /><path d="M 599,946 Z" fill="black" /><path d="M 427,946 Z" fill="black" /><path d="M 616,942 Z" fill="black" /><path d="M 936,642 Z" fill="black" /><path d="M 76,595 Z" fill="black" /><path d="M 71,562 L 71,563 Z" fill="black" /><path d="M 954,554 L 954,555 Z" fill="black" /><path d="M 68,522 Z" fill="black" /><path d="M 68,516 L 68,518 Z" fill="black" /><path d="M 69,475 L 69,476 Z" fill="black" /><path d="M 72,448 Z" fill="black" /><path d="M 604,77 Z" fill="black" /><path d="M 433,74 Z" fill="black" /><path d="M 482,70 L 481,71 L 469,71 L 468,72 L 460,72 L 459,73 L 451,73 L 450,74 L 444,74 L 443,75 L 437,75 L 436,76 L 432,76 L 431,77 L 426,77 L 425,78 L 421,78 L 420,79 L 416,79 L 415,80 L 412,80 L 411,81 L 408,81 L 407,82 L 404,82 L 403,83 L 400,83 L 399,84 L 396,84 L 395,85 L 392,85 L 391,86 L 389,86 L 388,87 L 385,87 L 384,88 L 382,88 L 381,89 L 379,89 L 378,90 L 375,90 L 374,91 L 372,91 L 371,92 L 369,92 L 368,93 L 366,93 L 365,94 L 363,94 L 362,95 L 360,95 L 359,96 L 358,96 L 357,97 L 355,97 L 354,98 L 352,98 L 351,99 L 350,99 L 349,100 L 347,100 L 346,101 L 345,101 L 344,102 L 342,102 L 341,103 L 340,103 L 339,104 L 337,104 L 336,105 L 335,105 L 334,106 L 333,106 L 332,107 L 330,107 L 329,108 L 328,108 L 327,109 L 326,109 L 325,110 L 324,110 L 323,111 L 321,111 L 320,112 L 319,112 L 318,113 L 317,113 L 316,114 L 315,114 L 314,115 L 313,115 L 312,116 L 311,116 L 310,117 L 309,117 L 308,118 L 307,118 L 306,119 L 305,119 L 304,120 L 303,120 L 301,122 L 300,122 L 299,123 L 298,123 L 297,124 L 296,124 L 295,125 L 294,125 L 292,127 L 291,127 L 290,128 L 289,128 L 288,129 L 287,129 L 285,131 L 284,131 L 283,132 L 282,132 L 280,134 L 279,134 L 278,135 L 277,135 L 275,137 L 274,137 L 273,138 L 272,138 L 270,140 L 269,140 L 267,142 L 266,142 L 264,144 L 263,144 L 261,146 L 260,146 L 258,148 L 257,148 L 254,151 L 253,151 L 251,153 L 250,153 L 247,156 L 246,156 L 243,159 L 242,159 L 239,162 L 238,162 L 234,166 L 233,166 L 229,170 L 228,170 L 223,175 L 222,175 L 215,182 L 214,182 L 184,212 L 184,213 L 176,221 L 176,222 L 171,227 L 171,228 L 166,233 L 166,234 L 163,237 L 163,238 L 159,242 L 159,243 L 156,246 L 156,247 L 154,249 L 154,250 L 151,253 L 151,254 L 149,256 L 149,257 L 146,260 L 146,261 L 144,263 L 144,264 L 142,266 L 142,267 L 140,269 L 140,270 L 138,272 L 138,273 L 137,274 L 137,275 L 135,277 L 135,278 L 134,279 L 134,280 L 132,282 L 132,283 L 130,285 L 130,286 L 129,287 L 129,288 L 128,289 L 128,290 L 126,292 L 126,293 L 125,294 L 125,295 L 124,296 L 124,297 L 123,298 L 123,299 L 121,301 L 121,302 L 120,303 L 120,304 L 119,305 L 119,306 L 118,307 L 118,308 L 117,309 L 117,310 L 116,311 L 116,312 L 115,313 L 115,314 L 114,315 L 114,316 L 113,317 L 113,318 L 112,319 L 112,320 L 111,321 L 111,322 L 110,323 L 110,325 L 109,326 L 109,327 L 108,328 L 108,329 L 107,330 L 107,331 L 106,332 L 106,334 L 105,335 L 105,336 L 104,337 L 104,338 L 103,339 L 103,341 L 102,342 L 102,343 L 101,344 L 101,346 L 100,347 L 100,348 L 99,349 L 99,351 L 98,352 L 98,354 L 97,355 L 97,357 L 96,358 L 96,360 L 95,361 L 95,362 L 94,363 L 94,365 L 93,366 L 93,369 L 92,370 L 92,371 L 91,372 L 91,375 L 90,376 L 90,378 L 89,379 L 89,381 L 88,382 L 88,385 L 87,386 L 87,388 L 86,389 L 86,392 L 85,393 L 85,396 L 84,397 L 84,400 L 83,401 L 83,404 L 82,405 L 82,408 L 81,409 L 81,412 L 80,413 L 80,417 L 79,418 L 79,422 L 78,423 L 78,427 L 77,428 L 77,433 L 76,434 L 76,439 L 75,440 L 75,446 L 74,447 L 74,453 L 73,454 L 73,462 L 72,463 L 72,473 L 71,474 L 71,489 L 70,490 L 70,530 L 71,531 L 71,546 L 72,547 L 72,557 L 73,558 L 73,565 L 74,566 L 74,572 L 75,573 L 75,579 L 76,580 L 76,584 L 77,585 L 77,590 L 78,591 L 78,595 L 79,596 L 79,600 L 80,601 L 80,605 L 81,606 L 81,609 L 82,610 L 82,613 L 83,614 L 83,617 L 84,618 L 84,621 L 85,622 L 85,625 L 86,626 L 86,629 L 87,630 L 87,632 L 88,633 L 88,635 L 89,636 L 89,639 L 90,640 L 90,642 L 91,643 L 91,645 L 92,646 L 92,648 L 93,649 L 93,651 L 94,652 L 94,654 L 95,655 L 95,657 L 96,658 L 96,659 L 97,660 L 97,662 L 98,663 L 98,665 L 99,666 L 99,667 L 100,668 L 100,670 L 101,671 L 101,673 L 102,674 L 102,675 L 103,676 L 103,678 L 104,679 L 104,680 L 105,681 L 105,682 L 106,683 L 106,685 L 107,686 L 107,687 L 108,688 L 108,689 L 109,690 L 109,691 L 110,692 L 110,694 L 111,695 L 111,696 L 112,697 L 112,698 L 113,699 L 113,700 L 114,701 L 114,702 L 115,703 L 115,704 L 116,705 L 116,706 L 117,707 L 117,708 L 118,709 L 118,710 L 119,711 L 119,712 L 120,713 L 120,714 L 121,715 L 121,716 L 122,717 L 122,718 L 123,719 L 123,720 L 125,722 L 125,723 L 126,724 L 126,725 L 127,726 L 127,727 L 128,728 L 128,729 L 130,731 L 130,732 L 131,733 L 131,734 L 133,736 L 133,737 L 134,738 L 134,739 L 136,741 L 136,742 L 137,743 L 137,744 L 139,746 L 139,747 L 141,749 L 141,750 L 143,752 L 143,753 L 145,755 L 145,756 L 147,758 L 147,759 L 149,761 L 149,762 L 152,765 L 152,766 L 154,768 L 154,769 L 157,772 L 157,773 L 160,776 L 160,777 L 163,780 L 163,781 L 167,785 L 167,786 L 171,790 L 171,791 L 176,796 L 176,797 L 184,805 L 184,806 L 215,837 L 216,837 L 224,845 L 225,845 L 230,850 L 231,850 L 235,854 L 236,854 L 240,858 L 241,858 L 244,861 L 245,861 L 248,864 L 249,864 L 252,867 L 253,867 L 256,870 L 257,870 L 259,872 L 260,872 L 262,874 L 263,874 L 265,876 L 266,876 L 269,879 L 270,879 L 271,880 L 272,880 L 274,882 L 275,882 L 277,884 L 278,884 L 280,886 L 281,886 L 282,887 L 283,887 L 285,889 L 286,889 L 287,890 L 288,890 L 290,892 L 291,892 L 292,893 L 293,893 L 295,895 L 296,895 L 297,896 L 298,896 L 299,897 L 300,897 L 302,899 L 303,899 L 304,900 L 305,900 L 306,901 L 307,901 L 308,902 L 309,902 L 310,903 L 311,903 L 312,904 L 313,904 L 314,905 L 315,905 L 316,906 L 317,906 L 318,907 L 319,907 L 320,908 L 321,908 L 322,909 L 323,909 L 324,910 L 325,910 L 326,911 L 327,911 L 328,912 L 330,912 L 331,913 L 332,913 L 333,914 L 334,914 L 335,915 L 336,915 L 337,916 L 339,916 L 340,917 L 341,917 L 342,918 L 343,918 L 344,919 L 346,919 L 347,920 L 348,920 L 349,921 L 351,921 L 352,922 L 353,922 L 354,923 L 356,923 L 357,924 L 359,924 L 360,925 L 361,925 L 362,926 L 364,926 L 365,927 L 367,927 L 368,928 L 370,928 L 371,929 L 373,929 L 374,930 L 376,930 L 377,931 L 379,931 L 380,932 L 382,932 L 383,933 L 386,933 L 387,934 L 389,934 L 390,935 L 393,935 L 394,936 L 396,936 L 397,937 L 400,937 L 401,938 L 404,938 L 405,939 L 407,939 L 408,940 L 412,940 L 413,941 L 416,941 L 417,942 L 421,942 L 422,943 L 426,943 L 427,944 L 431,944 L 432,945 L 436,945 L 437,946 L 442,946 L 443,947 L 449,947 L 450,948 L 456,948 L 457,949 L 464,949 L 465,950 L 474,950 L 475,951 L 488,951 L 489,952 L 538,952 L 539,951 L 551,951 L 552,950 L 561,950 L 562,949 L 569,949 L 570,948 L 576,948 L 577,947 L 583,947 L 584,946 L 589,946 L 590,945 L 594,945 L 595,944 L 599,944 L 600,943 L 604,943 L 605,942 L 608,942 L 609,941 L 613,941 L 614,940 L 617,940 L 618,939 L 621,939 L 622,938 L 624,938 L 625,937 L 628,937 L 629,936 L 632,936 L 633,935 L 635,935 L 636,934 L 638,934 L 639,933 L 642,933 L 643,932 L 645,932 L 646,931 L 648,931 L 649,930 L 651,930 L 652,929 L 654,929 L 655,928 L 656,928 L 657,927 L 659,927 L 660,926 L 662,926 L 663,925 L 665,925 L 666,924 L 667,924 L 668,923 L 670,923 L 671,922 L 672,922 L 673,921 L 675,921 L 676,920 L 677,920 L 678,919 L 680,919 L 681,918 L 682,918 L 683,917 L 684,917 L 685,916 L 687,916 L 688,915 L 689,915 L 690,914 L 691,914 L 692,913 L 693,913 L 694,912 L 695,912 L 696,911 L 698,911 L 699,910 L 700,910 L 701,909 L 702,909 L 703,908 L 704,908 L 705,907 L 706,907 L 707,906 L 708,906 L 709,905 L 710,905 L 711,904 L 712,904 L 713,903 L 714,903 L 715,902 L 716,902 L 718,900 L 719,900 L 720,899 L 721,899 L 722,898 L 723,898 L 724,897 L 725,897 L 727,895 L 728,895 L 729,894 L 730,894 L 731,893 L 732,893 L 734,891 L 735,891 L 736,890 L 737,890 L 739,888 L 740,888 L 741,887 L 742,887 L 744,885 L 745,885 L 747,883 L 748,883 L 749,882 L 750,882 L 752,880 L 753,880 L 755,878 L 756,878 L 758,876 L 759,876 L 762,873 L 763,873 L 765,871 L 766,871 L 768,869 L 769,869 L 772,866 L 773,866 L 776,863 L 777,863 L 780,860 L 781,860 L 784,857 L 785,857 L 789,853 L 790,853 L 795,848 L 796,848 L 801,843 L 802,843 L 809,836 L 810,836 L 839,807 L 839,806 L 847,798 L 847,797 L 852,792 L 852,791 L 857,786 L 857,785 L 861,781 L 861,780 L 864,777 L 864,776 L 867,773 L 867,772 L 870,769 L 870,768 L 872,766 L 872,765 L 875,762 L 875,761 L 877,759 L 877,758 L 879,756 L 879,755 L 881,753 L 881,752 L 883,750 L 883,749 L 885,747 L 885,746 L 887,744 L 887,743 L 888,742 L 888,741 L 890,739 L 890,738 L 892,736 L 892,735 L 893,734 L 893,733 L 894,732 L 894,731 L 896,729 L 896,728 L 897,727 L 897,726 L 898,725 L 898,724 L 899,723 L 899,722 L 901,720 L 901,719 L 902,718 L 902,717 L 903,716 L 903,715 L 904,714 L 904,713 L 905,712 L 905,711 L 906,710 L 906,709 L 907,708 L 907,707 L 908,706 L 908,705 L 909,704 L 909,703 L 910,702 L 910,701 L 911,700 L 911,699 L 912,698 L 912,697 L 913,696 L 913,695 L 914,694 L 914,692 L 915,691 L 915,690 L 916,689 L 916,688 L 917,687 L 917,686 L 918,685 L 918,683 L 919,682 L 919,681 L 920,680 L 920,679 L 921,678 L 921,676 L 922,675 L 922,674 L 923,673 L 923,671 L 924,670 L 924,668 L 925,667 L 925,666 L 926,665 L 926,663 L 927,662 L 927,660 L 928,659 L 928,658 L 929,657 L 929,655 L 930,654 L 930,652 L 931,651 L 931,649 L 932,648 L 932,646 L 933,645 L 933,643 L 934,642 L 934,639 L 935,638 L 935,636 L 936,635 L 936,633 L 937,632 L 937,629 L 938,628 L 938,625 L 939,624 L 939,622 L 940,621 L 940,618 L 941,617 L 941,614 L 942,613 L 942,610 L 943,609 L 943,605 L 944,604 L 944,601 L 945,600 L 945,596 L 946,595 L 946,591 L 947,590 L 947,585 L 948,584 L 948,579 L 949,578 L 949,573 L 950,572 L 950,565 L 951,564 L 951,557 L 952,556 L 952,547 L 953,546 L 953,534 L 954,533 L 954,485 L 953,484 L 953,472 L 952,471 L 952,462 L 951,461 L 951,453 L 950,452 L 950,446 L 949,445 L 949,440 L 948,439 L 948,434 L 947,433 L 947,428 L 946,427 L 946,423 L 945,422 L 945,418 L 944,417 L 944,413 L 943,412 L 943,409 L 942,408 L 942,405 L 941,404 L 941,401 L 940,400 L 940,397 L 939,396 L 939,393 L 938,392 L 938,390 L 937,389 L 937,386 L 936,385 L 936,383 L 935,382 L 935,379 L 934,378 L 934,376 L 933,375 L 933,373 L 932,372 L 932,370 L 931,369 L 931,367 L 930,366 L 930,364 L 929,363 L 929,361 L 928,360 L 928,358 L 927,357 L 927,356 L 926,355 L 926,353 L 925,352 L 925,350 L 924,349 L 924,348 L 923,347 L 923,345 L 922,344 L 922,343 L 921,342 L 921,340 L 920,339 L 920,338 L 919,337 L 919,335 L 918,334 L 918,333 L 917,332 L 917,331 L 916,330 L 916,328 L 915,327 L 915,326 L 914,325 L 914,324 L 913,323 L 913,322 L 912,321 L 912,320 L 911,319 L 911,318 L 910,317 L 910,316 L 909,315 L 909,314 L 908,313 L 908,311 L 906,309 L 906,308 L 905,307 L 905,306 L 904,305 L 904,304 L 903,303 L 903,302 L 902,301 L 902,300 L 901,299 L 901,298 L 900,297 L 900,296 L 899,295 L 899,294 L 897,292 L 897,291 L 896,290 L 896,289 L 895,288 L 895,287 L 893,285 L 893,284 L 892,283 L 892,282 L 890,280 L 890,279 L 889,278 L 889,277 L 887,275 L 887,274 L 885,272 L 885,271 L 883,269 L 883,268 L 881,266 L 881,265 L 880,264 L 880,263 L 877,260 L 877,259 L 875,257 L 875,256 L 873,254 L 873,253 L 870,250 L 870,249 L 867,246 L 867,245 L 864,242 L 864,241 L 861,238 L 861,237 L 858,234 L 858,233 L 853,228 L 853,227 L 848,222 L 848,221 L 841,214 L 841,213 L 810,182 L 809,182 L 802,175 L 801,175 L 796,170 L 795,170 L 791,166 L 790,166 L 787,163 L 786,163 L 783,160 L 782,160 L 778,156 L 777,156 L 775,154 L 774,154 L 771,151 L 770,151 L 768,149 L 767,149 L 765,147 L 764,147 L 762,145 L 761,145 L 759,143 L 758,143 L 756,141 L 755,141 L 753,139 L 752,139 L 750,137 L 749,137 L 748,136 L 747,136 L 745,134 L 744,134 L 743,133 L 742,133 L 740,131 L 739,131 L 738,130 L 737,130 L 735,128 L 734,128 L 733,127 L 732,127 L 731,126 L 730,126 L 729,125 L 728,125 L 726,123 L 725,123 L 724,122 L 723,122 L 722,121 L 721,121 L 720,120 L 719,120 L 718,119 L 717,119 L 716,118 L 715,118 L 714,117 L 713,117 L 712,116 L 711,116 L 710,115 L 709,115 L 708,114 L 707,114 L 706,113 L 705,113 L 704,112 L 703,112 L 702,111 L 701,111 L 700,110 L 698,110 L 697,109 L 696,109 L 695,108 L 694,108 L 693,107 L 692,107 L 691,106 L 689,106 L 688,105 L 687,105 L 686,104 L 685,104 L 684,103 L 682,103 L 681,102 L 679,102 L 678,101 L 677,101 L 676,100 L 674,100 L 673,99 L 672,99 L 671,98 L 669,98 L 668,97 L 666,97 L 665,96 L 663,96 L 662,95 L 661,95 L 660,94 L 658,94 L 657,93 L 655,93 L 654,92 L 652,92 L 651,91 L 648,91 L 647,90 L 645,90 L 644,89 L 642,89 L 641,88 L 638,88 L 637,87 L 635,87 L 634,86 L 631,86 L 630,85 L 627,85 L 626,84 L 623,84 L 622,83 L 619,83 L 618,82 L 615,82 L 614,81 L 611,81 L 610,80 L 606,80 L 605,79 L 602,79 L 601,78 L 596,78 L 595,77 L 591,77 L 590,76 L 585,76 L 584,75 L 578,75 L 577,74 L 571,74 L 570,73 L 563,73 L 562,72 L 553,72 L 552,71 L 541,71 L 540,70 Z" fill="black" /><path d="M 549,69 L 550,69 Z" fill="black" /><path d="M 486,68 Z" fill="black" /></svg>